<svg width="110px" height="110px" viewBox="0 0 17.6 17.6" xmlns="http://www.w3.org/2000/svg" xmlns:xlink="http://www.w3.org/1999/xlink" aria-hidden="true" role="img" class="iconify iconify--noto" preserveAspectRatio="xMidYMid meet"><path d="m16.719 8.364 -1.915 -0.617c-1.225 -0.404 -1.943 -1.396 -2.28 -2.641L11.681 1c-0.022 -0.081 -0.076 -0.19 -0.241 -0.19 -0.139 0 -0.219 0.109 -0.241 0.19l-0.843 4.107c-0.338 1.246 -1.055 2.237 -2.28 2.641l-1.915 0.617c-0.271 0.088 -0.275 0.47 -0.006 0.562l1.929 0.664c1.221 0.406 1.933 1.396 2.272 2.636l0.844 4.06c0.022 0.081 0.067 0.227 0.241 0.227 0.183 0 0.219 -0.146 0.241 -0.227l0.844 -4.06c0.338 -1.242 1.05 -2.232 2.272 -2.636l1.929 -0.664c0.267 -0.094 0.263 -0.476 -0.008 -0.564" fill="#fdd835"/><path d="M16.9 8.536c-0.03 -0.076 -0.089 -0.142 -0.182 -0.172l-1.915 -0.617c-1.225 -0.404 -1.943 -1.396 -2.28 -2.641L11.681 1c-0.012 -0.047 -0.056 -0.132 -0.107 -0.157l0.272 4.121c0.202 1.881 0.375 2.767 1.877 3.025 1.29 0.223 2.782 0.479 3.178 0.547" fill="#ffee58"/><path d="m16.904 8.751 -3.322 0.762c-1.17 0.297 -1.815 0.975 -1.815 2.749l-0.326 4.254c0.111 -0.011 0.202 -0.072 0.241 -0.227l0.844 -4.06c0.338 -1.242 1.05 -2.232 2.272 -2.636l1.929 -0.664c0.091 -0.033 0.149 -0.1 0.177 -0.177" fill="#f4b400"/><g><path d="M5.749 11.936c-1.145 -0.378 -1.25 -0.804 -1.442 -1.524l-0.48 -1.683c-0.029 -0.109 -0.312 -0.109 -0.342 0L3.158 10.285c-0.194 0.716 -0.606 1.286 -1.31 1.518l-1.122 0.487c-0.155 0.051 -0.158 0.271 -0.003 0.323l1.13 0.4c0.701 0.232 1.111 0.802 1.306 1.515l0.326 1.488c0.03 0.109 0.312 0.109 0.341 0l0.382 -1.481c0.194 -0.718 0.491 -1.288 1.444 -1.522l1.062 -0.4c0.155 -0.054 0.154 -0.274 -0.003 -0.325z" fill="#fdd835"/><path d="M3.917 10.388c0.117 1.081 0.176 1.381 1.052 1.605l1.825 0.356c-0.019 -0.026 -0.047 -0.048 -0.084 -0.059l-0.963 -0.353c-1.005 -0.344 -1.283 -0.781 -1.471 -1.655s-0.389 -1.445 -0.389 -1.445c-0.07 -0.188 -0.171 -0.179 -0.171 -0.179z" fill="#ffee58"/><path d="M3.95 14.161c0 -1.019 0.557 -1.524 1.442 -1.524l1.378 -0.056s-0.08 0.106 -0.219 0.139l-0.899 0.293c-0.763 0.307 -1.111 0.461 -1.348 1.504 0 0 -0.305 1.214 -0.363 1.342 -0.08 0.179 -0.175 0.216 -0.175 0.216z" fill="#f4b400"/></g><path d="M8.214 3.869c0.077 -0.026 0.074 -0.136 -0.004 -0.158l-1.062 -0.286a0.656 0.656 0 0 1 -0.459 -0.454L6.271 1.246c-0.021 -0.084 -0.14 -0.084 -0.161 0.001l-0.393 1.719a0.65 0.65 0 0 1 -0.468 0.463l-1.055 0.274c-0.078 0.021 -0.084 0.131 -0.007 0.158l1.112 0.385c0.199 0.069 0.353 0.231 0.414 0.433l0.397 1.594c0.021 0.083 0.139 0.084 0.16 0l0.411 -1.599a0.656 0.656 0 0 1 0.418 -0.43z" fill="#f4b400" stroke="#f4b400" stroke-miterlimit="10" stroke-width="0.1375"/></svg>